{
    "asset" : {
        "generator" : "Khronos glTF Blender I/O v0.9.4",
        "version" : "2.0"
    },
    "scene" : 0,
    "scenes" : [
        {
            "name" : "Scene",
            "nodes" : [
                0,
                1,
                2,
                3
            ]
        }
    ],
    "nodes" : [
        {
            "mesh" : 0,
            "name" : "Bat",
            "translation" : [
                0,
                0,
                1
            ]
        },
        {
            "mesh" : 1,
            "name" : "Townlet"
        },
        {
            "name" : "Lamp",
            "rotation" : [
                0.16907575726509094,
                0.7558803558349609,
                -0.27217137813568115,
                0.570947527885437
            ],
            "translation" : [
                4.076245307922363,
                5.903861999511719,
                -1.0054539442062378
            ]
        },
        {
            "name" : "Camera",
            "rotation" : [
                0.483536034822464,
                0.33687159419059753,
                -0.20870360732078552,
                0.7804827094078064
            ],
            "translation" : [
                7.481131553649902,
                5.34366512298584,
                6.5076398849487305
            ]
        }
    ],
    "materials" : [
        {
            "name" : "Bat",
            "pbrMetallicRoughness" : {
                "baseColorFactor" : [
                    0.7454043626785278,
                    0.5711250901222229,
                    0.3915725350379944,
                    1
                ],
                "metallicFactor" : 0,
                "roughnessFactor" : 0.4000000059604645
            }
        },
        {
            "name" : "Townlet",
            "pbrMetallicRoughness" : {
                "baseColorFactor" : [
                    0.7454043626785278,
                    0.5711250901222229,
                    0.3915725350379944,
                    1
                ],
                "metallicFactor" : 0,
                "roughnessFactor" : 0.4000000059604645
            }
        }
    ],
    "meshes" : [
        {
            "name" : "Bat",
            "primitives" : [
                {
                    "attributes" : {
                        "POSITION" : 0,
                        "NORMAL" : 1
                    },
                    "indices" : 2,
                    "material" : 0
                }
            ]
        },
        {
            "name" : "Townlet",
            "primitives" : [
                {
                    "attributes" : {
                        "POSITION" : 3,
                        "NORMAL" : 4
                    },
                    "indices" : 5,
                    "material" : 1
                }
            ]
        }
    ],
    "accessors" : [
        {
            "bufferView" : 0,
            "componentType" : 5126,
            "count" : 128,
            "max" : [
                0.017500020563602448,
                0.017500033602118492,
                0.44999998807907104
            ],
            "min" : [
                -0.017500020563602448,
                -0.017500033602118492,
                -0.44999998807907104
            ],
            "type" : "VEC3"
        },
        {
            "bufferView" : 1,
            "componentType" : 5126,
            "count" : 128,
            "type" : "VEC3"
        },
        {
            "bufferView" : 2,
            "componentType" : 5123,
            "count" : 372,
            "type" : "SCALAR"
        },
        {
            "bufferView" : 3,
            "componentType" : 5126,
            "count" : 128,
            "max" : [
                0.02500000037252903,
                0.10000000149011612,
                0.02500000037252903
            ],
            "min" : [
                -0.02500000037252903,
                -0.10000000149011612,
                -0.02500000037252903
            ],
            "type" : "VEC3"
        },
        {
            "bufferView" : 4,
            "componentType" : 5126,
            "count" : 128,
            "type" : "VEC3"
        },
        {
            "bufferView" : 5,
            "componentType" : 5123,
            "count" : 372,
            "type" : "SCALAR"
        }
    ],
    "bufferViews" : [
        {
            "buffer" : 0,
            "byteLength" : 1536,
            "byteOffset" : 0
        },
        {
            "buffer" : 0,
            "byteLength" : 1536,
            "byteOffset" : 1536
        },
        {
            "buffer" : 0,
            "byteLength" : 744,
            "byteOffset" : 3072
        },
        {
            "buffer" : 0,
            "byteLength" : 1536,
            "byteOffset" : 3816
        },
        {
            "buffer" : 0,
            "byteLength" : 1536,
            "byteOffset" : 5352
        },
        {
            "buffer" : 0,
            "byteLength" : 744,
            "byteOffset" : 6888
        }
    ],
    "buffers" : [
        {
            "byteLength" : 7632,
            "uri" : "townlets.bin"
        }
    ]
}
